<?xml version="1.0" encoding="UTF-8"?>
<svg id="b" data-name="Layer 2" xmlns="http://www.w3.org/2000/svg" width="778.549" height="258.559" viewBox="0 0 778.549 258.559">
  <g id="c" data-name="Layer 1">
    <g>
      <path d="M28.8,47.921l2.148.27c5.216,5.187,16.794,10.216,16.527,18.774-.066,2.123-10.323,18.106-12.162,22.31C-3.327,177.566,92.686,263.288,177.832,220.58c6.958-3.49,13.041-8.404,19.743-12.282,4.951,7.199,12.652,11.888,16.708,19.759.005.834-1.004,2.022-1.594,2.659-3.21,3.464-15.946,10.668-20.62,13.098-58.975,30.667-133.734,12.148-170.582-43.011C-9.614,154.246-6.761,91.109,28.8,47.921Z" fill="#fff"/>
      <path d="M126.71.073c57.915-1.974,113.286,36.118,129.233,92.138,11.67,40.994,4.025,85.087-23.415,117.888-.87.386-11.251-8.314-12.759-9.761-1.388-1.332-5.84-5.928-6.008-7.531-.252-2.399,9.555-16.908,11.393-20.828,21.834-46.566,3.943-102.198-39.157-128.971-37.479-23.281-84.462-20.389-119.458,6.126l-15.961-19.094c-1.175-3.89,6.793-7.975,9.957-9.969C80.239,7.65,103.42.867,126.71.073Z" fill="#fff"/>
      <path d="M588.436,130.631c.07.249,1.165,1.326,1.51,1.488l66.285.403c1.902.211,2.673,2.031,3.064,3.681.626,2.644.606,17.611-.55,19.402l-1.913.681-89.028.228-5.974-1.519-.191-125.735,96.419-.112c1.143,1.061,1.237,20.503.061,22.596-.282.503-1.483,1.32-1.87,1.32h-66.688l-1.124,1.124v23.982c0,.248.993,1.138.749,1.874h58.821c3.162,0,1.856,10.413,1.837,12.337-.038,3.88.1,7.778.04,11.649-4.119.084-8.271-.113-12.398-.036-13.031.245-26.566-.294-39.714.001-2.508.056-7.465.672-9.335,1.905v24.732Z" fill="#fff"/>
      <path d="M421.341,156.487h-27.35l-12.483-28.356-56.155.342-12.287,28.014h-27.35l55.054-127.426c.551-.46,1.162-.926,1.855-1.143,2.722-.85,21.257-.704,23.494.562.831.47,1.328,1.164,1.766,1.981,14.106,33.196,29.083,66.059,43.098,99.289,3.7,8.772,7.771,17.617,10.359,26.737ZM371.137,103.276c-4.863-13.392-10.783-26.402-16.338-39.493l-2.012-1.735-16.867,41.227h35.217Z" fill="#fff"/>
      <path d="M477.389,27.058c15.011-1.339,32.618,2.432,45.612,10.139,1.805,1.071,6.822,3.854,7.016,5.775.241,2.395-12.091,19.475-13.876,19.624-11.703-7.237-26.955-14.247-41.034-10.841-8.177,1.978-12.613,11.062-7.315,18.178,8.002,10.75,44.795,10.079,59.585,26.59,10.576,11.807,10.237,32.653.678,44.912-19.43,24.92-62.736,18.923-86.419,3.372-2.845-1.868-9.473-5.075-6.848-8.972,2.831-1.999,11.871-15.413,14.06-15.968,1.783-.452,11.684,7.157,14.423,8.547,10.573,5.366,32.147,10.574,41.278.752,5.187-5.58,3.683-12.995-2.33-17.224-16.767-11.794-55.148-7.697-62.677-33.99-7.963-27.807,10.701-48.474,37.847-50.895Z" fill="#fff"/>
      <path d="M720.909,27.053c10.44-1.02,23.033.742,32.964,4.063,4.061,1.358,19.246,7.969,20.293,11.987.524,2.012-11.348,18.333-13.167,18.859-2.215.641-14.03-6.894-17.799-8.18-8.639-2.947-25.54-5.773-31.45,3.081-5.785,8.665.425,15.906,8.73,18.895,17.556,6.318,47.536,8.241,55.866,28.062,3.926,9.344,2.605,29.418-3.944,37.688-17.361,21.92-51.952,19.458-75.289,9.335-3.923-1.702-17.678-8.946-18.678-12.87-.657-2.58,12.664-15.693,15.389-18.092,8.083,4.952,15.548,10.64,24.989,13.005,10.39,2.603,33.669,3.766,33.02-12.008-.304-7.388-7.185-10.099-13.145-12.368-22.506-8.567-53.954-8.06-56.574-39.344-2.046-24.423,15.734-39.858,38.797-42.112Z" fill="#fff"/>
      <path d="M126.709,38.294c75.944-3.494,124.235,82.135,78.392,144.358-42.649,57.888-133.021,46.578-160.047-19.66-23.857-58.471,19.802-121.852,81.655-124.698ZM119.97,47.292c-66.126,6.157-96.887,89.858-51.187,138.432,42.753,45.442,121.387,30.049,141.281-29.585,20.133-60.348-28.306-114.601-90.095-108.848Z" fill="#fff"/>
      <path d="M375.633,179.345c.529-1.731,4.259-1.304,5.279.174,3.142,3.966,19.989,36.418,22.08,36.921,1.016.244,1.298-.603,1.756-1.23l20.006-34.694c1.512-1.99,3.349-2.812,5.213-.804.914,14.604.052,29.263.335,43.882.039,2.027.954,3.842.828,5.947-.329,5.491-5.293,4.568-5.293,3.016v-43.093c-1.764-.36-1.204.218-1.681.966-6.631,10.378-11.543,21.999-18.517,32.205-2.406,2.272-3.843,1.257-5.601-.999-6.615-8.487-11.28-22.302-18.19-31.227-.488-.63.018-1.356-1.718-.945v43.093c0,1.487-4.496,1.488-4.496,0v-53.211Z" fill="#fff"/>
      <path d="M544.977,179.345c.655-2.14,4.763-1.659,5.28,2.213,1.532,11.476-.705,24.535-.846,36.008-.057,4.631,3.9,23.453-5.909,12.718-4.443-4.863-9.919-13.136-14.237-18.736-5.656-7.335-10.775-15.101-16.893-22.079-1.695-.314-1.033.74-1.113,1.856-.78,10.742.854,21.647.814,32.234-.005,1.346-1.1,9.506-1.509,9.8-3.516,1.096-4.289-.693-4.594-3.758-1.095-11.035.199-25.577.824-36.736.318-5.683-2.131-20.206,6.689-10.5,10.056,11.066,19.241,28.658,29.258,38.937.718.737.987,1.405,2.237,1.135v-43.093Z" fill="#fff"/>
      <path d="M471.333,179.941l21.888,52.521-1.84,1.251c-1.201.158-2.044.055-2.987-.778-2.048-1.809-5.404-15.114-7.094-16.131-4.843-.609-9.718.313-14.658.418-2.477.052-9.093-1.734-11.211.715-2.087,2.413-4.21,14.552-7.633,15.613-1.576.488-4.493.337-3.686-2.148l21.518-51.224c1.003-1.918,4.259-1.432,5.704-.237ZM458.057,212.695h20.981c.164-1.06-.1-1.993-.367-3.005-1.333-5.048-5.973-15.031-8.295-20.196-.424-.943-.82-3.478-2.195-3.034l-10.123,26.235Z" fill="#fff"/>
      <path d="M681.541,232.732c-2.018-1.924-4.498-13.05-6.554-15.546-1.435-1.743-21.626-.307-25.38-.641-2.689.906-5.275,22.041-12.432,15.931l21.14-50.69c1.017-2.157,2.867-3.431,5.276-2.695,2.771.847,6.976,15.982,8.406,19.352,4.645,10.949,10.273,21.602,14.475,32.792.715,3.049-3.391,2.966-4.931,1.498ZM651.378,212.695h20.981c-.524-3.162-8.761-25.868-10.124-26.235-1.505-.406-1.064.702-1.449,1.51-1.187,2.49-10.371,23.818-9.408,24.725Z" fill="#fff"/>
      <path d="M599.676,189.088c.136-1.516.939-6.19,1.594-7.399.412-.759,1.17-1.352,1.778-1.954.723.518.976.977,1.129,1.854.44,2.525.64,8.936.776,11.965.516,11.575-.444,23.304-.035,34.884l25.484.746c-.019.621.069,1.263.028,1.89-.097,1.495-.167,2.489-1.904,2.608l-28.85-.751c.93-14.158-1.25-29.868,0-43.843Z" fill="#fff"/>
      <path d="M577.197,232.556c-.743,2.438-4.838,1.623-5.289-2.954-.692-7.03-.642-42.09,1.714-47.087.47-.996,1.294-1.697,2.077-2.427l1.498.756v51.712Z" fill="#fff"/>
    </g>
  </g>
</svg>