<?xml version="1.0" encoding="UTF-8"?>
<svg id="b" xmlns="http://www.w3.org/2000/svg" version="1.1" viewBox="0 0 287.4 161.3">
  <!-- Generator: Adobe Illustrator 29.5.0, SVG Export Plug-In . SVG Version: 2.1.0 Build 137)  -->
  <defs>
    <style>
      .st0 {
        fill: #f2efcf;
      }

      .st1 {
        fill: #fff;
      }
    </style>
  </defs>
  <g id="c">
    <g>
      <path class="st0" d="M51.4,15c-3.9,1.9-25,12.1-25,15.5v96.5L0,113.1V16.2c.6-1.7,1.1-2.5,2.4-3.6C4.6,10.7,24.9-.1,26.8,0l24,12.9.6,2.1h0Z"/>
      <path class="st1" d="M78.9,68.1c-.6,1.3-23.7,13.9-26,14-5.3.2-21.9-12.2-26.5-13.1v-.9l26-14.5,26.5,14.6Z"/>
      <polygon class="st0" points="78.9 68.1 52.4 53.5 52.4 14 77.7 29.2 78.9 68.1"/>
      <path class="st0" d="M96.9,97c10,1.8,11.5,16.7,1.5,20.5l7,11.5-9.8-.2c-2.3-3.3-4.2-9.6-8.7-9.8-3.2-.1-.8,7.8-1.5,10h-9v-32c6.2.8,14.6-1,20.5,0h0ZM85.4,112c15,2.2,14.8-9.9,0-8v8Z"/>
      <path class="st0" d="M126.1,96.2c8.1-1.3,18,3.1,19.8,11.7,5.9,27.5-38,29.1-33.5.6,1-6.1,7.8-11.4,13.7-12.3h0ZM127.1,104.2c-11,2.4-5.2,22.7,6.2,16.2,8.1-4.6,4.3-18.5-6.2-16.2Z"/>
      <path class="st0" d="M253.4,125c-9.5,5.5-23.5,7.2-29.6-3.9-9.6-17.8,12.9-33.2,27.6-20.5l-4,6c-8.8-6.4-21,.1-15.8,10.7,3.1,6.2,14.9,7.4,12.8-1.3l-6,1v-7s15,0,15,0v15h0Z"/>
      <polygon class="st0" points="214.4 97 214.4 104 197.4 104 197.4 109 212.4 109 212.4 116 197.4 116 197.4 121 214.4 121 214.4 129 188.4 129 188.4 97 214.4 97"/>
      <polygon class="st0" points="287.4 97 287.4 104 270.4 104 270.4 109 285.4 109 285.4 116 270.4 116 270.4 121 287.4 121 287.4 129 261.4 129 261.4 97 287.4 97"/>
      <path class="st0" d="M60.9,97c5,.9,8.7,6.5,8.5,11.5-.3,9.5-10.1,11.8-18,11.5v9s-9,0-9,0v-32c5.6.7,13.2-.9,18.5,0h0ZM51.4,113c12.3,1.7,12.4-11,0-9v9Z"/>
      <polygon class="st0" points="181.4 97 181.4 104 171.4 104 171.4 129 162.4 129 162.4 104 153.4 104 153.4 97 181.4 97"/>
      <path class="st0" d="M88.4,139c1.4,0,1.9-.3,3,.7,4.2,3.7,7.9,12.7,13,16.3v-17h3v22c-1.8.3-2.2,0-3.5-1-4.2-3.6-8.5-13.3-13.5-17v18h-2v-22Z"/>
      <path class="st0" d="M158.4,139c4.9.4,15.7-1.9,17,4.5.9,4.5-.6,6.5-4.5,8.4l-.4,1.4,6,7.6c-7.3,0-6.8-13.2-15.6-8.1-1.7,2.4,1.6,8.8-2.4,8.1v-22h0ZM160.4,150c18,2.8,17.7-11.6,0-9v9Z"/>
      <path class="st0" d="M136.4,139v16.5c0,4.5,13,4.5,13,0v-16.5h3v14.5c0,.9-2.4,5.7-3.6,6.4-5.3,3.4-15.4,0-15.4-6.4v-14.5h3Z"/>
      <path class="st0" d="M197.4,139v2h-14v8s13,0,13,0c-1.2,4-12,1-13,2v8h14v2h-16v-22h16Z"/>
      <path class="st0" d="M83.4,139v2h-14v8s12,.5,12,.5c.7,2.3-2.1,1.4-3.5,1.5-2.8.1-5.7,0-8.5,0v8h14v2h-16v-22h16Z"/>
      <path class="st0" d="M215.2,153.1c-4.9-2.8-14.2-1.9-12.9-9.6,1.1-6.1,11.4-6,15-2l-10.3-.3c-9.3,7.7,8.5,6.4,10.1,11.5,2.9,9.5-11.2,11.1-15.8,4.8,1.9-2.7,3.6,1,6.5,1.5,4.6.7,8.2-.5,7.3-5.8h0Z"/>
      <path class="st0" d="M44.3,139l7.5,19c1,0,6-15.4,7.2-17.8,1.1-2,1-1.3,3.3-1.2l-9.1,21.9h-2.8c0,0-9.1-20.5-9.1-20.5-.5-2.3,1.4-1.4,2.9-1.5h0Z"/>
      <polygon class="st0" points="129.4 139 129.4 141 121.4 141 121.4 161 119.4 161 119.4 141 111.4 141 111.4 139 129.4 139"/>
      <polygon class="st0" points="209.4 88 204.4 93.5 197.4 94 201.4 86 209.4 88"/>
      <polygon class="st0" points="282.4 88 277.4 93.5 270.4 94 274.4 86 282.4 88"/>
    </g>
  </g>
</svg>