<?xml version="1.0" encoding="UTF-8"?>
<svg id="b" data-name="Layer 2" xmlns="http://www.w3.org/2000/svg" width="565.003" height="223.467" viewBox="0 0 565.003 223.467">
  <g id="c" data-name="logos">
    <g>
      <g>
        <path d="M130.575,138.824c-7.646-7.309-19.726-2.798-27.686,1.805-28.753,16.629-52.423,72.085-94.043,44.04-3.061-2.063-12.319-10.555-7.463-14.22,3.552-2.68,3.472,1.297,5.184,3.013,5.179,5.194,19.715,8.91,26.925,8.131,19.516-2.109,34.854-24.98,48.711-37.313,16.883-15.026,46.654-30.828,61.002-3.996,1.231,2.302,2.865,4.824.877,7.296-2.551,3.173-7.014-.271-10.897.031-10.82.842-21.51,6.989-24.925,17.657-4.084,12.759,4.765,22.077,17.536,17.355,18.107-6.696,40.044-51.758,52.339-67.775,7.517-9.792,25.927-23.263,37.504-27.346,2.786-.983,6.079-1.795,6.723,1.901.563,3.23-3.351,6.206-5.02,8.99-2.575,4.298-5.677,10.987-7.182,15.748-.183.579-1.015,1.741-.036,2.031,14.393-20.697,33.047-40.419,57.457-48.952,3.259-1.139,13.123-4.379,15.935-4.087,5.351.557,5.531,6.011,2.202,9.517-4.359,4.59-10.981,8.814-15.803,13.589-16.645,16.486-33.842,46.766-35.347,70.387-.908,14.256.51,19.883,9.681,30.775,3.113,3.697,11.386,9.505,9.701,14.521-1.838,5.47-10.206-1.309-12.931-3.522-5.223-4.242-14.246-13.874-16.297-20.211-8.95-27.649,8.888-62.129,24.376-84.275l13.104-14.612c-5.551,1.959-10.791,5.862-15.358,9.513-15.613,12.481-32.026,33.342-41.167,51.095-1.325,2.573-2.488,8.332-5.08,9.464-10.574,4.616-5.611-17.859-4.588-22.594,1.528-7.069,4.095-13.917,6.903-20.556-18.772,9.449-26.232,30.949-36.975,47.731-6.957,10.866-22.425,32.728-33.875,37.988-25.716,11.813-45.414-13.947-29.909-36.912,3.202-4.742,13.124-13.155,18.649-14.257l9.773-1.95Z" fill="#f2efcf"/>
        <path d="M503.298,128.527c-29.303,8.999-54.277,55.217-84.808,53.231-10.276-.668-20.59-10.894-24.018-20.185-1.859-5.04-1.811-9.701-2.416-14.868-.076-.646.034-1.697-.874-1.348-1.512,5.483-3.929,10.882-6.413,16.007-6.503,13.417-13.358,23.235-23.722,33.981-2.816,2.92-12.841,14.04-17.288,11.07-1.455-1.731-2.055-4.292-1.083-6.385,6.188-8.436,14.636-16.188,20.25-25,4.665-7.323,9.816-18.962,13.249-27.105,7.421-17.599,12.442-36.162,16.912-54.698-3.47.303-10.667,11.309-12.127,11.642-.712.162-1.596-.188-2.276-.446-2.21-2.364-1.099-5.152.074-7.67,6.791-14.576,44.222-34.406,46.495-9.018,1.204,13.452-15.045,24.708-24.501,31.522,2.311,11.966-.38,30.994,5.53,41.547,11.201,20.002,31.299,5.134,43.465-4.854,11.621-9.541,21.849-20.74,34.822-28.626,16.845-10.24,43.082-18.981,52.745,4.857,1.575,3.886,1.644,8.789-3.71,8.656-3.428-.085-4.189-3.734-6.723-4.56-8.318-2.712-18.276,2.372-23.65,8.639-7.625,8.892-7.68,14.849,2.643,21.308,9.326,5.835,18.809,5.498,28.154-.238,6.647-4.08,18.994-16.438,21.041-23.958.984-3.616-.994-13.109,5.906-9.902,4.422,2.055,4.547,9.48,3.45,13.58-3.211,11.996-21.749,30.497-33.679,34.011-30.978,9.123-61.602-22.735-30.089-46.276l13.006-6.982c-3.295.91-7.144,1.079-10.366,2.068ZM401.738,105.667c10.234-6.477,23.627-27.747-.476-17.765,2.563,2.086-.215,17.191.476,17.765Z" fill="#f2efcf"/>
        <path d="M59.506,116.041c-4.609,6.908-8.624,15.85-10.74,23.896-.872,3.315-1.861,14.454-2.813,16.096-1.807,3.118-5.723,2.393-7.593-.208-1.376-1.915-4.392-11.145-5.116-13.881-5.247-19.827-6.096-56.763,8.207-73.138,2.178-2.494,7.599-4.995,7.848-.465.04.733-4.421,8.07-5.216,9.925-7.065,16.482-6.591,41.373-2.292,58.556,1.339-3.735,2.543-7.466,4.115-11.119,1.839-4.274,11.62-23.239,14.817-25.029,9.377-5.252,5.199,14.466,8.32,18.39,2.964-16.467,6.224-32.97,12.949-48.362,7.84-17.943,20.403-36.015,38.109-45.43,4.223-2.245,8.602-.381,6.252,4.171-1.548,2.999-12.85,10.56-16.271,13.788-20.595,19.433-28.25,50.752-32.801,77.735-.812,4.815-.127,21.037-8.136,17.189-3.743-1.798-8.885-17.606-9.638-22.115Z" fill="#f2efcf"/>
        <path d="M337.812,169.151c3.199,2.295,4.202,7.244-.33,7.852-2.375.318-13.001-3.752-15.713-4.968-8.937-4.009-16.158-9.118-19.564-18.782l-5.035,18.456c-1.521,5.293-8.886,7.904-9.557.847-.582-6.114,3.29-23.972,4.824-30.711,3.466-15.222,11.681-36.637,19.71-50.011,1.877-3.127,3.936-7.79,8.322-6.356.589.299.888.803,1.128,1.394,2.15,5.314-3.854,17.809-5.513,23.509-.163.558-1.271,1.554-.177,1.936,4.057-5.211,8.815-9.852,13.02-14.933,2.899-3.503,12.613-17.682,15.461-18.962,1.956-.879,4.063-.799,5.116,1.311,1.461,2.929-4.522,13.374-6.324,16.38-8.628,14.391-21.312,26.865-33.559,38.199.313,10.715,3.18,20.415,12.287,26.738,4.492,3.119,11.961,5.27,15.905,8.1Z" fill="#f2efcf"/>
        <path d="M266.679,135.697c-2.301.956-6.646-.548-8.449.745-.815.584-7.251,12.088-8.299,14.005-1.228,2.247-4.334,10.181-5.424,11.277-1.115,1.122-2.136,1.085-3.567.616-2.921-1.34-1.192-7.22-.506-9.502,4.978-16.552,25.347-43.456,38.185-55.14,4.241-3.86,16.323-14.073,20.933-16.323,5.054-2.467,8.273-.122,7.285,5.373-23.114,31.731-43.16,65.514-27.433,105.684,1.273,3.251,6.565,10.219-2.059,9.236-5.201-.593-11.233-18.043-12.514-22.797-3.993-14.815-1.871-28.686,1.847-43.174ZM278.775,109.877c-.706-.412-7.002,7.286-7.864,8.355-2.521,3.13-5.07,6.416-6.953,9.99l6.099-.27,8.717-18.074Z" fill="#f2efcf"/>
        <path d="M153.484,10.544c3.893-1.594,7.117,1.92,6.259,5.746-5.653,19.465-15.742,39.435-18.49,59.561-.495,3.625-.739,17.151-2.154,19.101-2.01,2.769-5.761,1.34-6.516-1.859-.897-3.801-.713-12.512-.495-16.683.09-1.725,1.484-9.415,1.275-9.866-.698-1.507-5.389.291-6.955.408-1.722.128-4.892-.378-6.16.008-1.14.347-4.348,6.269-5.233,7.811-2.702,4.707-5.656,10.312-7.99,15.209-1.252,2.628-4.681,12.851-5.821,14.085-3.359,3.635-4.799-.615-4.514-4.039,1.57-18.828,30.909-63.064,44.141-77.352,1.985-2.144,10.764-11.356,12.652-12.129ZM144.714,30.662l-7.305,8.215c-3.401,6.267-9.571,12.571-12.184,19.087-.287.717-1.252.955-.014,1.546l10.732-1.331,8.771-27.517Z" fill="#f2efcf"/>
        <path d="M172.073,59.698c11.537-21.421,25.686-44.597,48.737-55.024C223.847,3.301,231.315-.059,234.238,0c3.372.068,3.829,3.949,1.586,5.964-2.936,2.637-11.164,5.291-15.109,7.376-21.702,11.465-38.31,39.533-46.228,62.097-1.27,3.619-2.141,12.827-6.711,13.448-2.259.307-4.465-2.176-4.911-4.228-1.201-5.535-.352-20.921-.089-27.308.294-7.137,2.939-41.514,7.839-45.099,1.588-1.162,3.778-1.011,4.505.981.748,2.049-1.561,17.13-1.832,20.835-.624,8.525-.968,17.092-1.214,25.633Z" fill="#f2efcf"/>
        <path d="M416.542,123.257c1.532-2.196,4.532-3.26,5.867-.424-.143,7.67-1.988,28.028,11.243,23.92,13.439-4.172,4.792-33.543,4.825-43.519.035-10.372,5.693-23.733,17.102-25.597,10.453-1.708,17.112,7.757,13.765,17.442-.926,2.679-4.468,6.276-6.239,2.829-1.63-3.174,2.639-14.796-7.492-10.963-13.085,4.951-3.514,38.872-5.611,50.687-3.093,17.431-24.329,27.794-33.525,10.199-2.556-4.892-3.121-20.009.064-24.574Z" fill="#f2efcf"/>
        <path d="M346.863,130.148c.195-.453-3.105-3.78-3.701-4.804-6.325-10.857,4.647-25.405,12.108-32.973,4.031-4.089,16.09-15.166,22.025-12.034,6.021,3.178-1.561,6.453-3.462,7.991-6.472,5.232-21.859,21.093-21.878,29.572-.015,6.399,8.244,4.216,10.551,8.51,2.658,4.948-3.971,7.421-6.805,9.901-3.523,3.083-6.831,8.087-4.293,12.854,2.262,4.25,17.399-1.559,18.458,3.831-.116,8.071-17.088,8.398-22.362,6.634-11.712-3.917-9.987-23.481-.639-29.482Z" fill="#f2efcf"/>
        <path d="M230.465,66.059c1.122.74,1.465,2.901,1.009,4.151-1.204,3.297-14.687,6.222-18.133,6.515-4.637.395-11.641-3.253-13.389-7.638-6.567-16.479,17.361-31.542,30.173-36.378-4.672-9.329,5.783-17.675,13.021-21.856,4.232-2.444,17.163-8.869,21.428-6.306,2.046,1.229,2.197,3.544.301,4.89-1.922,1.365-8.028,3.091-10.912,4.528-6.136,3.059-15.218,7.917-16.945,14.926,1.493,2.014,9.817.198,9.211,5.568-.437,3.873-7.206,3.545-10.235,4.488-8.925,2.78-22.986,11.813-27.024,20.478-3.284,7.047,1.93,9.134,8.171,8.526,3.281-.32,10.984-3.436,13.325-1.892Z" fill="#f2efcf"/>
      </g>
      <g>
        <path d="M409.891,203.537h-7.168c-.341,0-.652.05-.931.147-.281.097-.512.237-.694.419-.184.182-.324.403-.421.66-.099.256-.147.555-.147.896,0,.268.043.528.128.784.085.256.219.512.403.768.182.256.419.52.712.788s.66.574,1.098.916c.902.729,1.676,1.424,2.322,2.083.646.656,1.17,1.311,1.571,1.955.403.648.7,1.292.896,1.936.196.648.293,1.311.293,1.994,0,.927-.165,1.758-.495,2.487-.328.733-.817,1.354-1.463,1.866s-1.457.9-2.431,1.168c-.976.272-2.109.403-3.401.403h-9.032v-5.265h7.862c.341,0,.652-.05.931-.147.281-.097.518-.233.714-.403.194-.167.341-.384.438-.64.097-.252.147-.539.147-.857,0-.291-.05-.574-.147-.842s-.244-.535-.438-.803c-.196-.268-.446-.547-.751-.842-.305-.291-.675-.609-1.113-.951-.879-.683-1.628-1.346-2.25-1.994-.621-.644-1.133-1.292-1.534-1.936-.403-.648-.702-1.292-.896-1.94-.196-.644-.293-1.307-.293-1.99,0-.927.165-1.758.493-2.487.33-.733.817-1.354,1.463-1.866s1.457-.9,2.433-1.168c.974-.272,2.109-.403,3.401-.403h8.301v5.265Z" fill="#f2efcf"/>
        <path d="M418.411,198.272v12.066c0,1.172.134,2.2.402,3.092.27.888.665,1.637,1.189,2.246.524.609,1.164,1.075,1.92,1.389.755.318,1.62.477,2.596.477.999,0,1.884-.159,2.652-.477.766-.314,1.412-.78,1.938-1.389.524-.609.92-1.366,1.187-2.266.268-.904.403-1.924.403-3.073v-12.066h5.886v12.105c0,1.998-.285,3.802-.859,5.408-.572,1.61-1.383,2.987-2.431,4.132-1.048,1.148-2.322,2.025-3.822,2.634-1.5.609-3.176.916-5.028.916s-3.523-.307-5.009-.916c-1.488-.609-2.76-1.482-3.822-2.615-1.061-1.133-1.872-2.51-2.431-4.132-.563-1.622-.842-3.43-.842-5.428v-12.105h6.07Z" fill="#f2efcf"/>
        <path d="M455.104,199.114c1.597.974,2.76,2.374,3.492,4.206h-3.509c.413-.927.925-1.746,1.536-2.452.609-.706,1.309-1.3,2.101-1.773.793-.477,1.676-.834,2.652-1.079.974-.244,2.023-.365,3.145-.365,3.242,0,5.734.985,7.478,2.96,1.742,1.975,2.615,4.791,2.615,8.446v13.75h-5.742v-13.893c0-.954-.097-1.789-.293-2.506-.194-.718-.481-1.315-.859-1.792-.376-.473-.854-.834-1.426-1.079s-1.249-.365-2.029-.365c-1.56,0-2.718.493-3.474,1.482-.755.985-1.133,2.479-1.133,4.477v13.676h-5.595v-13.676c0-2.021-.378-3.523-1.133-4.497-.757-.974-1.901-1.463-3.437-1.463-1.562,0-2.726.473-3.492,1.424-.768.951-1.152,2.39-1.152,4.318v13.893h-5.631v-13.75c0-1.827.225-3.449.677-4.861.45-1.416,1.102-2.611,1.955-3.585.854-.974,1.901-1.711,3.145-2.211,1.243-.5,2.669-.749,4.279-.749,2.291,0,4.235.485,5.831,1.463Z" fill="#f2efcf"/>
        <path d="M493.426,199.114c1.597.974,2.76,2.374,3.492,4.206h-3.509c.413-.927.925-1.746,1.536-2.452.609-.706,1.309-1.3,2.101-1.773.793-.477,1.676-.834,2.652-1.079.974-.244,2.023-.365,3.145-.365,3.242,0,5.734.985,7.478,2.96,1.742,1.975,2.615,4.791,2.615,8.446v13.75h-5.742v-13.893c0-.954-.097-1.789-.293-2.506-.194-.718-.481-1.315-.859-1.792-.376-.473-.854-.834-1.426-1.079s-1.249-.365-2.029-.365c-1.56,0-2.718.493-3.474,1.482-.755.985-1.133,2.479-1.133,4.477v13.676h-5.595v-13.676c0-2.021-.378-3.523-1.133-4.497-.757-.974-1.901-1.463-3.437-1.463-1.562,0-2.726.473-3.492,1.424-.768.951-1.152,2.39-1.152,4.318v13.893h-5.631v-13.75c0-1.827.225-3.449.677-4.861.45-1.416,1.102-2.611,1.955-3.585.854-.974,1.901-1.711,3.145-2.211,1.243-.5,2.669-.749,4.279-.749,2.291,0,4.235.485,5.831,1.463Z" fill="#f2efcf"/>
        <path d="M515.969,198.272h6.07v24.536h-6.07v-24.536Z" fill="#f2efcf"/>
        <path d="M546.94,203.537h-8.116v19.271h-6.07v-19.271h-8.118v-5.265h22.305v5.265Z" fill="#f2efcf"/>
      </g>
    </g>
  </g>
</svg>