<?xml version="1.0" encoding="UTF-8"?>
<svg id="b" data-name="Layer 2" xmlns="http://www.w3.org/2000/svg" width="1288.506" height="214.261" xmlns:xlink="http://www.w3.org/1999/xlink" viewBox="0 0 1288.506 214.261">
  <defs>
    <linearGradient id="d" x1="644.253" y1=".219" x2="644.253" y2="210.86" gradientUnits="userSpaceOnUse">
      <stop offset="0" stop-color="#5f938d"/>
      <stop offset="1" stop-color="#f2efcf"/>
    </linearGradient>
  </defs>
  <g id="c" data-name="waves_behind">
    <path d="M1288.222,136.423v-7.162h-7.187c-2.87-2.013-5.961-3.955-7.737-5.036-.908-.553-2.125-.557-3.12-1.141-10.613-6.178-19.034-18.249-27.409-27.135-17.176-18.233-36.55-33.032-55.367-49.422-7.052-6.145-13.446-13.238-20.85-18.99-15.115-11.737-50.537-29.679-69.629-27.328-19.763,2.437-33.348,21.931-30.853,41.457.435,3.387,3.342,4.971,6.15,2.7,2.262-1.822,2.416-6.031,6.457-8.579,10.653-6.694,19.714,4.935,23.285,13.797.152.378.3.758.443,1.14,5.883,15.719,1.568,33.371-10.398,44.981-17.119-18.121-36.401-32.863-55.134-49.179-7.052-6.145-13.446-13.238-20.85-18.99-15.115-11.737-50.537-29.679-69.629-27.328-19.763,2.437-33.348,21.931-30.853,41.457.435,3.387,3.342,4.971,6.15,2.7,2.262-1.822,2.416-6.031,6.457-8.579,10.653-6.694,19.714,4.935,23.285,13.797.152.378.3.758.443,1.14,5.883,15.719,1.568,33.371-10.398,44.981-17.119-18.121-36.401-32.863-55.134-49.179-7.052-6.145-13.446-13.238-20.85-18.99-15.115-11.737-50.537-29.679-69.629-27.328-19.763,2.437-33.348,21.931-30.853,41.457.435,3.387,3.342,4.971,6.15,2.7,2.262-1.822,2.416-6.031,6.457-8.579,10.653-6.694,19.714,4.935,23.286,13.797.152.378.3.758.443,1.14,5.883,15.719,1.568,33.371-10.398,44.981-17.119-18.121-36.401-32.863-55.134-49.179-7.052-6.145-13.446-13.238-20.85-18.99-15.115-11.737-50.537-29.679-69.629-27.328-19.763,2.437-33.348,21.931-30.853,41.457.435,3.387,3.342,4.971,6.15,2.7,2.262-1.822,2.416-6.031,6.457-8.579,10.653-6.694,19.714,4.935,23.285,13.797.152.378.3.758.443,1.14,5.883,15.719,1.568,33.371-10.398,44.981-17.119-18.121-36.401-32.863-55.134-49.179-7.052-6.145-13.446-13.238-20.85-18.99-15.115-11.737-50.537-29.679-69.629-27.328-19.763,2.437-33.348,21.931-30.853,41.457.435,3.387,3.342,4.971,6.15,2.7,2.262-1.822,2.416-6.031,6.457-8.579,10.653-6.694,19.714,4.935,23.285,13.797.152.378.3.758.443,1.14,5.883,15.719,1.568,33.371-10.398,44.981-17.119-18.121-36.401-32.863-55.134-49.179-7.052-6.145-13.446-13.238-20.85-18.99-15.115-11.737-50.537-29.679-69.629-27.328-19.763,2.437-33.348,21.931-30.853,41.457.435,3.387,3.342,4.971,6.15,2.7,2.262-1.822,2.416-6.031,6.457-8.579,10.653-6.694,19.714,4.935,23.285,13.797.152.378.3.758.443,1.14,5.883,15.719,1.568,33.371-10.398,44.981-17.119-18.121-36.401-32.863-55.134-49.179-7.052-6.145-13.446-13.238-20.85-18.99C248.272,15.801,212.85-2.142,193.758.21c-19.763,2.437-33.348,21.931-30.853,41.457.435,3.387,3.342,4.971,6.15,2.7,2.262-1.822,2.416-6.031,6.457-8.579,10.653-6.694,19.714,4.935,23.285,13.797.152.378.3.758.443,1.14,5.883,15.719,1.568,33.371-10.398,44.981-17.119-18.121-36.401-32.863-55.134-49.179-7.052-6.145-13.446-13.238-20.85-18.99C97.745,15.801,62.322-2.142,43.231.21,23.468,2.647,9.883,22.141,12.377,41.667c.435,3.387,3.342,4.971,6.15,2.7,2.262-1.822,2.416-6.031,6.457-8.579,10.653-6.694,19.714,4.935,23.285,13.797.152.378.3.758.443,1.14,6.12,16.353,1.208,34.802-11.879,46.36L.401,129.261h-.179v.158l-.222.196s.08.003.222.008v84.638h1288v-73.878c.376-1.276.382-2.68,0-3.96Z" fill="url(#d)"/>
  </g>
</svg>